# xmcd
#
# Track frame offsets:
#	150
#	28136
#	44561
#	57857
#	71046
#	85447
#	95570
#	106384
#	120085
#	132161
#	145285
#	167635
#	179657
#	196823
#	216535
#	227035
#	239658
#	254580
#	266936
#	278186
#	298136
#	311580
#	325360
#
# Disc length: 4497 seconds
#
# Revision: 0
# Processed by: cddbd v1.5.2PL0 Copyright (c) Steve Scherf et al.
# Submitted via: EasyCDDAExtractor 11.0.3.1
#
DISCID=75118f17
DTITLE=Various Artist - Dusties w/ L. P.
DYEAR=1900
DGENRE=Soul
TTITLE0=Sharon Ridley - Stay A While With Me
TTITLE1=Maria Maldour - Midnight At The Oasis
TTITLE2=The Diablos - Wind
TTITLE3=Donald Jenkins and the Daylighters - Elephant Walk
TTITLE4=Ray Bryant - Madison Time
TTITLE5=The Ideals - Gorilla
TTITLE6=Alvin Cash  - Twine Time
TTITLE7=Archie Bell and The Drells - Tighten Up
TTITLE8=Cliff Nobel - The Horse
TTITLE9=Lee Andrew and Hearts - Long Lonely Night
TTITLE10=Average White Band - School Boy Crush
TTITLE11=The Artistics - I'm Gonna Miss You
TTITLE12=Brook Benton - Rainy Night In Georgia
TTITLE13=Jerry Butler w/Brenda Lee Egar - Ain't Understanding Mellow
TTITLE14=Chuck Berry - Maybellene
TTITLE15=Booker T. and The M.G.'s - Green Onions
TTITLE16=Brenda and The Tabulations - Right On The Tip Of My Tongue
TTITLE17=James Brown - Please, Please, Please
TTITLE18=James Brown - Try Me
TTITLE19=James Brown - There Was A Time
TTITLE20=Wilson Pickett - I Found A Love
TTITLE21=The Monitors - Greetings This Is Uncle Sam
TTITLE22=Baby Washington - That's How Heartaches Are Made
EXTD=
EXTT0=
EXTT1=
EXTT2=
EXTT3=
EXTT4=
EXTT5=
EXTT6=
EXTT7=
EXTT8=
EXTT9=
EXTT10=
EXTT11=
EXTT12=
EXTT13=
EXTT14=
EXTT15=
EXTT16=
EXTT17=
EXTT18=
EXTT19=
EXTT20=
EXTT21=
EXTT22=
PLAYORDER=
